<mxfile host="Electron" modified="2023-09-12T14:15:02.136Z" agent="Mozilla/5.0 (Windows NT 10.0; Win64; x64) AppleWebKit/537.36 (KHTML, like Gecko) draw.io/21.6.8 Chrome/114.0.5735.289 Electron/25.5.0 Safari/537.36" etag="SSU625RlIspMDEb2_jNk" version="21.6.8" type="device">
  <diagram name="Page-1" id="1Agio33PMEeSyGY848ls">
    <mxGraphModel dx="1994" dy="297" grid="0" gridSize="10" guides="1" tooltips="1" connect="1" arrows="1" fold="1" page="0" pageScale="1" pageWidth="850" pageHeight="1100" math="0" shadow="0">
      <root>
        <mxCell id="0" />
        <mxCell id="1" parent="0" />
        <mxCell id="I1bQ0s1w8px7R7mW8fst-1" value="VPC" style="points=[[0,0],[0.25,0],[0.5,0],[0.75,0],[1,0],[1,0.25],[1,0.5],[1,0.75],[1,1],[0.75,1],[0.5,1],[0.25,1],[0,1],[0,0.75],[0,0.5],[0,0.25]];outlineConnect=0;gradientColor=none;html=1;whiteSpace=wrap;fontSize=12;fontStyle=0;container=1;pointerEvents=0;collapsible=0;recursiveResize=0;shape=mxgraph.aws4.group;grIcon=mxgraph.aws4.group_vpc;strokeColor=#248814;fillColor=none;verticalAlign=top;align=left;spacingLeft=30;fontColor=#AAB7B8;dashed=0;" vertex="1" parent="1">
          <mxGeometry x="-430" y="480" width="730" height="360" as="geometry" />
        </mxCell>
        <mxCell id="I1bQ0s1w8px7R7mW8fst-10" value="Redis Subnet" style="sketch=0;outlineConnect=0;gradientColor=none;html=1;whiteSpace=wrap;fontSize=12;fontStyle=0;shape=mxgraph.aws4.group;grIcon=mxgraph.aws4.group_subnet;strokeColor=#E8E8E8;fillColor=none;verticalAlign=top;align=left;spacingLeft=30;fontColor=#E8E8E8;dashed=0;" vertex="1" parent="I1bQ0s1w8px7R7mW8fst-1">
          <mxGeometry x="520" y="50" width="170" height="280" as="geometry" />
        </mxCell>
        <mxCell id="I1bQ0s1w8px7R7mW8fst-14" value="Security Group" style="fontStyle=0;verticalAlign=top;align=center;spacingTop=-2;fillColor=none;rounded=0;whiteSpace=wrap;html=1;strokeColor=#FF0000;strokeWidth=2;dashed=1;container=1;collapsible=0;expand=0;recursiveResize=0;" vertex="1" parent="I1bQ0s1w8px7R7mW8fst-1">
          <mxGeometry x="540" y="100" width="130" height="200" as="geometry" />
        </mxCell>
        <mxCell id="I1bQ0s1w8px7R7mW8fst-17" value="ElastiCache&lt;br&gt;for Redis" style="sketch=0;points=[[0,0,0],[0.25,0,0],[0.5,0,0],[0.75,0,0],[1,0,0],[0,1,0],[0.25,1,0],[0.5,1,0],[0.75,1,0],[1,1,0],[0,0.25,0],[0,0.5,0],[0,0.75,0],[1,0.25,0],[1,0.5,0],[1,0.75,0]];outlineConnect=0;fontColor=#FFFFFF;gradientColor=#4D72F3;gradientDirection=north;fillColor=#3334B9;strokeColor=#ffffff;dashed=0;verticalLabelPosition=bottom;verticalAlign=top;align=center;html=1;fontSize=12;fontStyle=1;aspect=fixed;shape=mxgraph.aws4.resourceIcon;resIcon=mxgraph.aws4.elasticache;" vertex="1" parent="I1bQ0s1w8px7R7mW8fst-14">
          <mxGeometry x="26" y="61" width="78" height="78" as="geometry" />
        </mxCell>
        <mxCell id="I1bQ0s1w8px7R7mW8fst-18" value="" style="image;sketch=0;aspect=fixed;html=1;points=[];align=center;fontSize=12;image=img/lib/mscae/Cache_Redis_Product.svg;" vertex="1" parent="I1bQ0s1w8px7R7mW8fst-14">
          <mxGeometry x="80" y="112" width="35.71" height="30" as="geometry" />
        </mxCell>
        <mxCell id="I1bQ0s1w8px7R7mW8fst-3" value="ELB Subnet" style="sketch=0;outlineConnect=0;gradientColor=none;html=1;whiteSpace=wrap;fontSize=12;fontStyle=0;shape=mxgraph.aws4.group;grIcon=mxgraph.aws4.group_subnet;strokeColor=#E8E8E8;fillColor=none;verticalAlign=top;align=left;spacingLeft=30;fontColor=#E8E8E8;dashed=0;" vertex="1" parent="I1bQ0s1w8px7R7mW8fst-1">
          <mxGeometry x="60" y="50" width="170" height="280" as="geometry" />
        </mxCell>
        <mxCell id="I1bQ0s1w8px7R7mW8fst-9" value="Fargate Subnet" style="sketch=0;outlineConnect=0;gradientColor=none;html=1;whiteSpace=wrap;fontSize=12;fontStyle=0;shape=mxgraph.aws4.group;grIcon=mxgraph.aws4.group_subnet;strokeColor=#E8E8E8;fillColor=none;verticalAlign=top;align=left;spacingLeft=30;fontColor=#E8E8E8;dashed=0;" vertex="1" parent="I1bQ0s1w8px7R7mW8fst-1">
          <mxGeometry x="290" y="50" width="170" height="280" as="geometry" />
        </mxCell>
        <mxCell id="I1bQ0s1w8px7R7mW8fst-19" style="edgeStyle=orthogonalEdgeStyle;rounded=0;orthogonalLoop=1;jettySize=auto;html=1;strokeWidth=2;endArrow=block;endFill=1;" edge="1" parent="I1bQ0s1w8px7R7mW8fst-1" source="I1bQ0s1w8px7R7mW8fst-3" target="I1bQ0s1w8px7R7mW8fst-9">
          <mxGeometry relative="1" as="geometry" />
        </mxCell>
        <mxCell id="I1bQ0s1w8px7R7mW8fst-12" value="Security Group" style="fontStyle=0;verticalAlign=top;align=center;spacingTop=-2;fillColor=none;rounded=0;whiteSpace=wrap;html=1;strokeColor=#FF0000;strokeWidth=2;dashed=1;container=1;collapsible=0;expand=0;recursiveResize=0;" vertex="1" parent="I1bQ0s1w8px7R7mW8fst-1">
          <mxGeometry x="80" y="100" width="130" height="200" as="geometry" />
        </mxCell>
        <mxCell id="I1bQ0s1w8px7R7mW8fst-15" value="Application&lt;br&gt;Load Balancer" style="outlineConnect=0;dashed=0;verticalLabelPosition=bottom;verticalAlign=top;align=center;html=1;shape=mxgraph.aws3.application_load_balancer;fillColor=#F58534;gradientColor=none;fontStyle=1" vertex="1" parent="I1bQ0s1w8px7R7mW8fst-12">
          <mxGeometry x="30.5" y="70" width="69" height="72" as="geometry" />
        </mxCell>
        <mxCell id="I1bQ0s1w8px7R7mW8fst-13" value="Security Group" style="fontStyle=0;verticalAlign=top;align=center;spacingTop=-2;fillColor=none;rounded=0;whiteSpace=wrap;html=1;strokeColor=#FF0000;strokeWidth=2;dashed=1;container=1;collapsible=0;expand=0;recursiveResize=0;" vertex="1" parent="I1bQ0s1w8px7R7mW8fst-1">
          <mxGeometry x="310" y="100" width="130" height="200" as="geometry" />
        </mxCell>
        <mxCell id="I1bQ0s1w8px7R7mW8fst-16" value="Fargate Cluster" style="sketch=0;points=[[0,0,0],[0.25,0,0],[0.5,0,0],[0.75,0,0],[1,0,0],[0,1,0],[0.25,1,0],[0.5,1,0],[0.75,1,0],[1,1,0],[0,0.25,0],[0,0.5,0],[0,0.75,0],[1,0.25,0],[1,0.5,0],[1,0.75,0]];outlineConnect=0;fontColor=#FFFFFF;gradientColor=#F78E04;gradientDirection=north;fillColor=#D05C17;strokeColor=#ffffff;dashed=0;verticalLabelPosition=bottom;verticalAlign=top;align=center;html=1;fontSize=12;fontStyle=1;aspect=fixed;shape=mxgraph.aws4.resourceIcon;resIcon=mxgraph.aws4.fargate;" vertex="1" parent="I1bQ0s1w8px7R7mW8fst-13">
          <mxGeometry x="26" y="64" width="78" height="78" as="geometry" />
        </mxCell>
        <mxCell id="I1bQ0s1w8px7R7mW8fst-20" style="edgeStyle=orthogonalEdgeStyle;rounded=0;orthogonalLoop=1;jettySize=auto;html=1;strokeWidth=2;endArrow=block;endFill=1;" edge="1" parent="I1bQ0s1w8px7R7mW8fst-1" source="I1bQ0s1w8px7R7mW8fst-9" target="I1bQ0s1w8px7R7mW8fst-10">
          <mxGeometry relative="1" as="geometry">
            <mxPoint x="240" y="190" as="sourcePoint" />
            <mxPoint x="300" y="190" as="targetPoint" />
          </mxGeometry>
        </mxCell>
        <mxCell id="I1bQ0s1w8px7R7mW8fst-21" value="" style="outlineConnect=0;dashed=0;verticalLabelPosition=bottom;verticalAlign=top;align=center;html=1;shape=mxgraph.aws3.internet;fillColor=#D2D3D3;gradientColor=none;" vertex="1" parent="1">
          <mxGeometry x="-470" y="640.5" width="59" height="59" as="geometry" />
        </mxCell>
        <mxCell id="I1bQ0s1w8px7R7mW8fst-22" style="edgeStyle=orthogonalEdgeStyle;rounded=0;orthogonalLoop=1;jettySize=auto;html=1;strokeWidth=2;endArrow=block;endFill=1;" edge="1" parent="1" source="I1bQ0s1w8px7R7mW8fst-21" target="I1bQ0s1w8px7R7mW8fst-3">
          <mxGeometry relative="1" as="geometry">
            <mxPoint x="-190" y="680" as="sourcePoint" />
            <mxPoint x="-130" y="680" as="targetPoint" />
          </mxGeometry>
        </mxCell>
      </root>
    </mxGraphModel>
  </diagram>
</mxfile>
